<?xml version="1.0" encoding="UTF-8"?>
<svg id="Layer_2" data-name="Layer 2" xmlns="http://www.w3.org/2000/svg" viewBox="0 0 47.59 47.59">
  <defs>
    <style>
      .cls-1 {
        fill: #fff;
      }
    </style>
  </defs>
  <g id="Layer_1-2" data-name="Layer 1">
    <g>
      <path class="cls-1" d="M17.59,15.52h12.42V.77l.78-.77,1.29.77v14.75h14.75l.77.78-.77,1.29h-14.75v12.42h14.75l.77.78-.77,1.29h-14.75v14.75l-.78.77-1.29-.77v-14.75h-12.42v14.75l-.78.77-1.29-.77v-14.75H.77l-.77-.78.77-1.29h14.75v-12.42H.77l-.77-.78.77-1.29h14.75V.77l.78-.77,1.29.77v14.75ZM30.01,17.59h-12.42v12.42h12.42v-12.42Z"/>
      <path class="cls-1" d="M12.27,23.79c0,2.21-1.79,4-4,4s-4-1.79-4-4,1.79-4,4-4,4,1.79,4,4ZM10.37,23.8c0-1.16-.94-2.1-2.1-2.1s-2.1.94-2.1,2.1.94,2.1,2.1,2.1,2.1-.94,2.1-2.1Z"/>
      <path class="cls-1" d="M12.27,39.32c0,2.21-1.79,4-4,4s-4-1.79-4-4,1.79-4,4-4,4,1.79,4,4ZM10.37,39.32c0-1.16-.94-2.1-2.1-2.1s-2.1.94-2.1,2.1.94,2.1,2.1,2.1,2.1-.94,2.1-2.1Z"/>
      <path class="cls-1" d="M4.92,4.14l3.17,2.55c1.38.24,2.76-4.09,4.32-1.77l-2.55,3.17c-.24,1.38,4.09,2.76,1.77,4.32l-3.17-2.55c-1.38-.24-2.76,4.09-4.32,1.77l2.55-3.17c.24-1.38-4.09-2.76-1.77-4.32Z"/>
      <path class="cls-1" d="M35.96,35.18l3.17,2.55c1.38.24,2.76-4.09,4.32-1.77l-2.55,3.17c-.24,1.38,4.09,2.76,1.77,4.32l-3.17-2.55c-1.38-.24-2.76,4.09-4.32,1.77l2.55-3.17c.24-1.38-4.09-2.76-1.77-4.32Z"/>
      <path class="cls-1" d="M43.32,8.27c0,2.21-1.79,4-4,4s-4-1.79-4-4,1.79-4,4-4,4,1.79,4,4ZM41.42,8.28c0-1.16-.94-2.1-2.1-2.1s-2.1.94-2.1,2.1.94,2.1,2.1,2.1,2.1-.94,2.1-2.1Z"/>
      <path class="cls-1" d="M20.44,19.66l3.17,2.55c1.38.24,2.76-4.09,4.32-1.77l-2.55,3.17c-.24,1.38,4.09,2.76,1.77,4.32l-3.17-2.55c-1.38-.24-2.76,4.09-4.32,1.77l2.55-3.17c.24-1.38-4.09-2.76-1.77-4.32Z"/>
    </g>
  </g>
</svg>